<mxfile host="app.diagrams.net" agent="Mozilla/5.0 (Macintosh; Intel Mac OS X 10_15_7) AppleWebKit/537.36 (KHTML, like Gecko) Chrome/127.0.0.0 Safari/537.36" version="24.7.8">
  <diagram name="第 1 页" id="d0JZ2d0g8s-CI0fJ1ktd">
    <mxGraphModel dx="984" dy="630" grid="1" gridSize="10" guides="1" tooltips="1" connect="1" arrows="1" fold="1" page="1" pageScale="1" pageWidth="827" pageHeight="1169" math="0" shadow="0">
      <root>
        <mxCell id="0" />
        <mxCell id="1" parent="0" />
        <mxCell id="JXkwy6lCEiNo1eEOm-KJ-4" style="edgeStyle=orthogonalEdgeStyle;rounded=0;orthogonalLoop=1;jettySize=auto;html=1;entryX=0;entryY=0.5;entryDx=0;entryDy=0;" edge="1" parent="1" source="JXkwy6lCEiNo1eEOm-KJ-1" target="JXkwy6lCEiNo1eEOm-KJ-3">
          <mxGeometry relative="1" as="geometry" />
        </mxCell>
        <mxCell id="JXkwy6lCEiNo1eEOm-KJ-5" style="edgeStyle=orthogonalEdgeStyle;rounded=0;orthogonalLoop=1;jettySize=auto;html=1;exitX=0.5;exitY=0;exitDx=0;exitDy=0;entryX=0;entryY=0.5;entryDx=0;entryDy=0;" edge="1" parent="1" source="JXkwy6lCEiNo1eEOm-KJ-1" target="JXkwy6lCEiNo1eEOm-KJ-2">
          <mxGeometry relative="1" as="geometry" />
        </mxCell>
        <mxCell id="JXkwy6lCEiNo1eEOm-KJ-1" value="Launch" style="swimlane;whiteSpace=wrap;html=1;" vertex="1" parent="1">
          <mxGeometry x="110" y="240" width="170" height="80" as="geometry" />
        </mxCell>
        <mxCell id="JXkwy6lCEiNo1eEOm-KJ-7" style="edgeStyle=orthogonalEdgeStyle;rounded=0;orthogonalLoop=1;jettySize=auto;html=1;entryX=0;entryY=0.5;entryDx=0;entryDy=0;" edge="1" parent="1" source="JXkwy6lCEiNo1eEOm-KJ-2" target="JXkwy6lCEiNo1eEOm-KJ-6">
          <mxGeometry relative="1" as="geometry" />
        </mxCell>
        <mxCell id="JXkwy6lCEiNo1eEOm-KJ-2" value="Sign Up" style="swimlane;whiteSpace=wrap;html=1;" vertex="1" parent="1">
          <mxGeometry x="360" y="160" width="170" height="80" as="geometry" />
        </mxCell>
        <mxCell id="JXkwy6lCEiNo1eEOm-KJ-10" style="edgeStyle=orthogonalEdgeStyle;rounded=0;orthogonalLoop=1;jettySize=auto;html=1;entryX=0;entryY=0.5;entryDx=0;entryDy=0;" edge="1" parent="1" source="JXkwy6lCEiNo1eEOm-KJ-3" target="JXkwy6lCEiNo1eEOm-KJ-6">
          <mxGeometry relative="1" as="geometry" />
        </mxCell>
        <mxCell id="JXkwy6lCEiNo1eEOm-KJ-3" value="Sign In" style="swimlane;whiteSpace=wrap;html=1;" vertex="1" parent="1">
          <mxGeometry x="360" y="360" width="170" height="80" as="geometry" />
        </mxCell>
        <mxCell id="JXkwy6lCEiNo1eEOm-KJ-6" value="Home" style="swimlane;whiteSpace=wrap;html=1;" vertex="1" parent="1">
          <mxGeometry x="600" y="240" width="170" height="80" as="geometry" />
        </mxCell>
      </root>
    </mxGraphModel>
  </diagram>
</mxfile>
